<svg width="24" height="24" viewBox="0 0 24 24" fill="none" xmlns="http://www.w3.org/2000/svg">
<path d="M13 1.00013C13 0.734916 13.1053 0.480562 13.2929 0.293025C13.4804 0.105489 13.7348 0.000132124 14 0.000132124C16.6512 0.00304372 19.1931 1.05755 21.0678 2.93228C22.9425 4.80701 23.997 7.34886 24 10.0001C24 10.2654 23.8946 10.5197 23.7071 10.7072C23.5195 10.8948 23.2652 11.0001 23 11.0001C22.7347 11.0001 22.4804 10.8948 22.2929 10.7072C22.1053 10.5197 22 10.2654 22 10.0001C21.9976 7.87913 21.154 5.84568 19.6542 4.34591C18.1544 2.84613 16.121 2.00251 14 2.00013C13.7348 2.00013 13.4804 1.89478 13.2929 1.70724C13.1053 1.5197 13 1.26535 13 1.00013ZM14 6.00013C15.0608 6.00013 16.0782 6.42156 16.8284 7.17171C17.5785 7.92185 18 8.93927 18 10.0001C18 10.2654 18.1053 10.5197 18.2929 10.7072C18.4804 10.8948 18.7347 11.0001 19 11.0001C19.2652 11.0001 19.5195 10.8948 19.7071 10.7072C19.8946 10.5197 20 10.2654 20 10.0001C19.9984 8.40932 19.3657 6.88412 18.2409 5.75925C17.116 4.63437 15.5908 4.00172 14 4.00013C13.7348 4.00013 13.4804 4.10549 13.2929 4.29303C13.1053 4.48056 13 4.73492 13 5.00013C13 5.26535 13.1053 5.5197 13.2929 5.70724C13.4804 5.89478 13.7348 6.00013 14 6.00013ZM23.093 16.7391C23.6725 17.3202 23.9979 18.1074 23.9979 18.9281C23.9979 19.7488 23.6725 20.536 23.093 21.1171L22.183 22.1661C13.993 30.0071 -5.93701 10.0821 1.78298 1.86613L2.93298 0.866132C3.51475 0.302809 4.29491 -0.0088188 5.10468 -0.00133303C5.91445 0.00615273 6.68872 0.332151 7.25998 0.906132C7.29098 0.937132 9.14398 3.34413 9.14398 3.34413C9.6938 3.92176 9.99988 4.68906 9.99858 5.48654C9.99727 6.28401 9.68869 7.05031 9.13698 7.62613L7.97898 9.08213C8.61982 10.6392 9.56204 12.0544 10.7515 13.2462C11.9409 14.4381 13.3542 15.3831 14.91 16.0271L16.375 14.8621C16.9509 14.3108 17.717 14.0026 18.5143 14.0015C19.3115 14.0004 20.0785 14.3065 20.656 14.8561C20.656 14.8561 23.062 16.7081 23.093 16.7391ZM21.717 18.1931C21.717 18.1931 19.324 16.3521 19.293 16.3211C19.0869 16.1169 18.8086 16.0023 18.5185 16.0023C18.2283 16.0023 17.95 16.1169 17.744 16.3211C17.717 16.3491 15.7 17.9561 15.7 17.9561C15.564 18.0643 15.4023 18.1352 15.2306 18.1619C15.0589 18.1885 14.8833 18.17 14.721 18.1081C12.7054 17.3577 10.8747 16.1829 9.35281 14.6632C7.83091 13.1436 6.65338 11.3146 5.89998 9.30013C5.83318 9.13559 5.8114 8.95622 5.83688 8.78047C5.86237 8.60472 5.93419 8.43893 6.04498 8.30013C6.04498 8.30013 7.65198 6.28213 7.67898 6.25613C7.88324 6.05012 7.99786 5.77175 7.99786 5.48163C7.99786 5.19152 7.88324 4.91315 7.67898 4.70713C7.64798 4.67713 5.80698 2.28213 5.80698 2.28213C5.59788 2.09464 5.32498 1.99423 5.04423 2.00148C4.76347 2.00873 4.49612 2.1231 4.29698 2.32113L3.14698 3.32113C-2.49501 10.1051 14.776 26.4181 20.721 20.8001L21.632 19.7501C21.8454 19.5524 21.9737 19.2794 21.9895 18.9888C22.0054 18.6983 21.9076 18.4129 21.717 18.1931Z" fill="#C8FF35"/>
</svg>
