<svg width="24" height="22" viewBox="0 0 24 22" fill="none" xmlns="http://www.w3.org/2000/svg">
<path d="M19 -0.000244141H5C3.67441 0.00134372 2.40356 0.528638 1.46622 1.46598C0.528882 2.40331 0.00158786 3.67416 0 4.99976L0 16.9998C0.00158786 18.3254 0.528882 19.5962 1.46622 20.5335C2.40356 21.4709 3.67441 21.9982 5 21.9998H19C20.3256 21.9982 21.5964 21.4709 22.5338 20.5335C23.4711 19.5962 23.9984 18.3254 24 16.9998V4.99976C23.9984 3.67416 23.4711 2.40331 22.5338 1.46598C21.5964 0.528638 20.3256 0.00134372 19 -0.000244141ZM5 1.99976H19C19.5988 2.00093 20.1835 2.18127 20.679 2.51756C21.1744 2.85385 21.5579 3.3307 21.78 3.88676L14.122 11.5458C13.5584 12.1071 12.7954 12.4222 12 12.4222C11.2046 12.4222 10.4416 12.1071 9.878 11.5458L2.22 3.88676C2.44215 3.3307 2.82561 2.85385 3.32105 2.51756C3.81648 2.18127 4.40121 2.00093 5 1.99976ZM19 19.9998H5C4.20435 19.9998 3.44129 19.6837 2.87868 19.1211C2.31607 18.5585 2 17.7954 2 16.9998V6.49976L8.464 12.9598C9.40263 13.896 10.6743 14.4218 12 14.4218C13.3257 14.4218 14.5974 13.896 15.536 12.9598L22 6.49976V16.9998C22 17.7954 21.6839 18.5585 21.1213 19.1211C20.5587 19.6837 19.7956 19.9998 19 19.9998Z" fill="#C8FF35"/>
</svg>
