<svg width="22" height="24" viewBox="0 0 22 24" fill="none" xmlns="http://www.w3.org/2000/svg">
<path d="M10.9998 24.0003C10.1578 24.0046 9.32693 23.8071 8.57689 23.4243C7.82684 23.0416 7.17942 22.4847 6.68882 21.8003C2.87782 16.5433 0.944824 12.5913 0.944824 10.0533C0.944824 7.38654 2.00419 4.82901 3.88987 2.94333C5.77554 1.05765 8.33307 -0.00170898 10.9998 -0.00170898C13.6666 -0.00170898 16.2241 1.05765 18.1098 2.94333C19.9955 4.82901 21.0548 7.38654 21.0548 10.0533C21.0548 12.5913 19.1218 16.5433 15.3108 21.8003C14.8202 22.4847 14.1728 23.0416 13.4228 23.4243C12.6727 23.8071 11.8419 24.0046 10.9998 24.0003ZM10.9998 2.18129C8.91224 2.18367 6.91084 3.01402 5.4347 4.49016C3.95855 5.96631 3.12821 7.96771 3.12582 10.0553C3.12582 12.0653 5.01882 15.7823 8.45482 20.5213C8.74652 20.9231 9.12919 21.2501 9.57154 21.4756C10.0139 21.701 10.5033 21.8186 10.9998 21.8186C11.4963 21.8186 11.9858 21.701 12.4281 21.4756C12.8705 21.2501 13.2531 20.9231 13.5448 20.5213C16.9808 15.7823 18.8738 12.0653 18.8738 10.0553C18.8714 7.96771 18.0411 5.96631 16.565 4.49016C15.0888 3.01402 13.0874 2.18367 10.9998 2.18129Z" fill="#C8FF35"/>
</svg>
