<svg width="8" height="8" viewBox="0 0 8 8" fill="none" xmlns="http://www.w3.org/2000/svg">
<path d="M4 0C3.20888 0 2.43552 0.234596 1.77772 0.674121C1.11993 1.11365 0.607234 1.73836 0.304484 2.46927C0.00173312 3.20017 -0.0774802 4.00444 0.0768607 4.78036C0.231202 5.55629 0.612165 6.26902 1.17157 6.82843C1.73098 7.38784 2.44372 7.7688 3.21964 7.92314C3.99556 8.07748 4.79983 7.99827 5.53074 7.69552C6.26164 7.39277 6.88635 6.88008 7.32588 6.22228C7.76541 5.56448 8 4.79113 8 4C8 2.93913 7.57858 1.92172 6.82843 1.17157C6.07828 0.421427 5.06087 0 4 0ZM4 6C3.60444 6 3.21776 5.8827 2.88886 5.66294C2.55996 5.44318 2.30362 5.13082 2.15224 4.76537C2.00087 4.39991 1.96126 3.99778 2.03843 3.60982C2.1156 3.22186 2.30608 2.86549 2.58579 2.58579C2.86549 2.30608 3.22186 2.1156 3.60982 2.03843C3.99778 1.96126 4.39992 2.00087 4.76537 2.15224C5.13082 2.30362 5.44318 2.55996 5.66294 2.88886C5.8827 3.21776 6 3.60444 6 4C6 4.53043 5.78929 5.03914 5.41422 5.41421C5.03914 5.78929 4.53044 6 4 6Z" fill="#C8FF35"/>
</svg>
