<svg width="115" height="20" viewBox="0 0 115 20" fill="none" xmlns="http://www.w3.org/2000/svg">
<path d="M11.85 15.625H4.4L3.05 19.45H0L6.5 2.075H9.775L16.25 19.45H13.2L11.85 15.625ZM11.05 13.425L8.125 5.175L5.2 13.425H11.05Z" fill="#C8FF35"/>
<path d="M18.216 1.675C18.216 1.19167 18.3827 0.791667 18.716 0.475C19.0493 0.158333 19.491 0 20.041 0C20.591 0 21.0327 0.158333 21.366 0.475C21.716 0.791667 21.891 1.19167 21.891 1.675C21.891 2.15833 21.716 2.55 21.366 2.85C21.0327 3.15 20.591 3.3 20.041 3.3C19.491 3.3 19.0493 3.15 18.716 2.85C18.3827 2.55 18.216 2.15833 18.216 1.675ZM21.466 5.675V19.45H18.616V5.675H21.466Z" fill="#C8FF35"/>
<path d="M34.3648 10.35C35.4315 10.5667 36.2898 11.075 36.9398 11.875C37.6065 12.675 37.9398 13.6083 37.9398 14.675C37.9398 16.1417 37.4482 17.3083 36.4648 18.175C35.4815 19.025 34.0565 19.45 32.1898 19.45H25.1648V1.8H32.0648C33.8315 1.8 35.1815 2.2 36.1148 3C37.0648 3.78333 37.5398 4.86667 37.5398 6.25C37.5398 7.36667 37.2482 8.275 36.6648 8.975C36.0815 9.65833 35.3148 10.1167 34.3648 10.35ZM28.0148 9.4H31.5398C32.5398 9.4 33.2982 9.16667 33.8148 8.7C34.3482 8.23333 34.6148 7.58333 34.6148 6.75C34.6148 5.93333 34.3482 5.29167 33.8148 4.825C33.2982 4.35833 32.5065 4.125 31.4398 4.125H28.0148V9.4ZM31.6148 17.1C32.6982 17.1 33.5315 16.8583 34.1148 16.375C34.7148 15.875 35.0148 15.1833 35.0148 14.3C35.0148 13.4167 34.7148 12.725 34.1148 12.225C33.5148 11.725 32.6732 11.475 31.5898 11.475H28.0148V17.1H31.6148Z" fill="white"/>
<path d="M46.3939 5.5C47.6439 5.5 48.7106 5.80833 49.5939 6.425C50.4773 7.04167 51.1023 7.85833 51.4689 8.875V5.675H54.3189V19.45H51.4689V16.25C51.1023 17.2667 50.4773 18.0833 49.5939 18.7C48.7106 19.3167 47.6439 19.625 46.3939 19.625C45.1939 19.625 44.1189 19.3417 43.1689 18.775C42.2356 18.2083 41.5023 17.3917 40.9689 16.325C40.4356 15.2583 40.1689 14 40.1689 12.55C40.1689 11.1167 40.4356 9.86667 40.9689 8.8C41.5023 7.73333 42.2356 6.91667 43.1689 6.35C44.1189 5.78333 45.1939 5.5 46.3939 5.5ZM47.2689 8C46.0023 8 44.9856 8.40833 44.2189 9.225C43.4689 10.025 43.0939 11.1333 43.0939 12.55C43.0939 13.9667 43.4689 15.0833 44.2189 15.9C44.9856 16.7 46.0023 17.1 47.2689 17.1C48.0689 17.1 48.7856 16.9167 49.4189 16.55C50.0523 16.1667 50.5523 15.6333 50.9189 14.95C51.2856 14.2667 51.4689 13.4667 51.4689 12.55C51.4689 11.65 51.2856 10.8583 50.9189 10.175C50.5523 9.475 50.0523 8.94167 49.4189 8.575C48.7856 8.19167 48.0689 8 47.2689 8Z" fill="white"/>
<path d="M65.6891 5.45C67.2891 5.45 68.5724 5.96667 69.5391 7C70.5057 8.03333 70.9891 9.50833 70.9891 11.425V19.45H68.1391V11.725C68.1391 10.4917 67.8224 9.54167 67.1891 8.875C66.5557 8.19167 65.6891 7.85 64.5891 7.85C63.4557 7.85 62.5474 8.21667 61.8641 8.95C61.1807 9.66667 60.8391 10.725 60.8391 12.125V19.45H57.9891V5.675H60.8391V8.7C61.2057 7.66667 61.8224 6.86667 62.6891 6.3C63.5557 5.73333 64.5557 5.45 65.6891 5.45Z" fill="white"/>
<path d="M82.2721 5.45C83.8721 5.45 85.1554 5.96667 86.1221 7C87.0887 8.03333 87.5721 9.50833 87.5721 11.425V19.45H84.7221V11.725C84.7221 10.4917 84.4054 9.54167 83.7721 8.875C83.1387 8.19167 82.2721 7.85 81.1721 7.85C80.0387 7.85 79.1304 8.21667 78.4471 8.95C77.7637 9.66667 77.4221 10.725 77.4221 12.125V19.45H74.5721V5.675H77.4221V8.7C77.7887 7.66667 78.4054 6.86667 79.2721 6.3C80.1387 5.73333 81.1387 5.45 82.2721 5.45Z" fill="white"/>
<path d="M103.955 11.9C103.955 12.3667 103.922 12.775 103.855 13.125H93.2551C93.3051 14.5417 93.6967 15.5917 94.4301 16.275C95.1634 16.9583 96.0717 17.3 97.1551 17.3C98.1051 17.3 98.9051 17.0583 99.5551 16.575C100.222 16.0917 100.63 15.45 100.78 14.65H103.83C103.647 15.6167 103.263 16.475 102.68 17.225C102.097 17.975 101.338 18.5667 100.405 19C99.4717 19.4167 98.4301 19.625 97.2801 19.625C95.9467 19.625 94.7634 19.3417 93.7301 18.775C92.7134 18.2083 91.9134 17.3917 91.3301 16.325C90.7467 15.2583 90.4551 14 90.4551 12.55C90.4551 11.1167 90.7467 9.86667 91.3301 8.8C91.9134 7.73333 92.7134 6.91667 93.7301 6.35C94.7634 5.78333 95.9467 5.5 97.2801 5.5C98.6301 5.5 99.8051 5.78333 100.805 6.35C101.822 6.9 102.597 7.66667 103.13 8.65C103.68 9.61667 103.955 10.7 103.955 11.9ZM101.08 11.825C101.113 10.925 100.955 10.175 100.605 9.575C100.272 8.95833 99.8051 8.50833 99.2051 8.225C98.6217 7.925 97.9801 7.775 97.2801 7.775C96.1634 7.775 95.2301 8.11667 94.4801 8.8C93.7301 9.48333 93.3217 10.4917 93.2551 11.825H101.08Z" fill="white"/>
<path d="M109.807 8.375C110.274 7.475 110.94 6.76667 111.807 6.25C112.674 5.71667 113.674 5.45 114.807 5.45V8.55H113.957C112.707 8.55 111.699 8.85833 110.932 9.475C110.182 10.075 109.807 11.075 109.807 12.475V19.45H106.957V5.675H109.807V8.375Z" fill="white"/>
</svg>
