<svg width="20" height="12" viewBox="0 0 20 12" fill="none" xmlns="http://www.w3.org/2000/svg">
<path d="M19.0999 2.875L10.6999 11.3C10.5999 11.4 10.4916 11.471 10.3749 11.513C10.2582 11.555 10.1332 11.5757 9.9999 11.575C9.86657 11.575 9.74157 11.5543 9.6249 11.513C9.50823 11.4717 9.3999 11.4007 9.2999 11.3L0.874902 2.875C0.641569 2.64166 0.524902 2.35 0.524902 2C0.524902 1.65 0.649902 1.35 0.899902 1.1C1.1499 0.849997 1.44157 0.724997 1.7749 0.724997C2.10824 0.724997 2.3999 0.849997 2.6499 1.1L9.9999 8.45L17.3499 1.1C17.5832 0.866663 17.8709 0.749996 18.2129 0.749996C18.5549 0.749996 18.8506 0.874996 19.0999 1.125C19.3499 1.375 19.4749 1.66666 19.4749 2C19.4749 2.33333 19.3499 2.625 19.0999 2.875Z" fill="#222222"/>
</svg>
